<svg xmlns="http://www.w3.org/2000/svg" viewBox="0 0 43.3 25.13"><defs><style>.cls-1{fill:#fff;}</style></defs><g id="Layer_2" data-name="Layer 2"><g id="Layer_1-2" data-name="Layer 1"><path class="cls-1" d="M33.7,6.2a.88.88,0,0,0,.82.56.86.86,0,0,0,.82-1.19L34.4,3.12a.87.87,0,1,0-1.63.62Z"/><path class="cls-1" d="M35.83,10.2a7.23,7.23,0,0,0-1.75.22L31.6,3.84a.77.77,0,0,0-.1-.25L30.32.45h0l0-.07,0,0a.1.1,0,0,0,0,0L30.16.21l0,0L30.06.12l0,0L30,.06l-.07,0-.06,0h-4a.7.7,0,0,0-.7.7.7.7,0,0,0,.7.7h3.34l.69,1.86H19.26l-.15,0h0l-.09,0-.05,0-.07,0,0,0-.06.05,0,0,0,.06-.06.11h0L17.5,6.34H6.3a.71.71,0,1,0,0,1.41h6.38L18.84,17H14.89a7.46,7.46,0,1,0,0,1.4H24l.16,0h0l.1,0,0,0,.09-.06,0,0,.1-.12h0l7-10.42,1.23,3.24a7.44,7.44,0,1,0,3.08-.68ZM7.46,18.37h5a5.13,5.13,0,1,1,0-1.4h-5a.7.7,0,0,0,0,1.4ZM23.61,17H20.53L14.37,7.75H29.76ZM31,6.36l-.11,0H19l.69-1.67h10.7L31,6.35Zm4.88,16.43a5.11,5.11,0,0,1-2.24-9.71l1.59,4.15a.69.69,0,0,0,.65.45.53.53,0,0,0,.25-.05.7.7,0,0,0,.41-.9l-1.57-4.1a5.5,5.5,0,0,1,.91-.09,5.13,5.13,0,1,1,0,10.25Z"/></g></g></svg>