<svg xmlns="http://www.w3.org/2000/svg" viewBox="0 0 44.23 40.4"><defs><style>.cls-1{fill:#d6d6d6;}</style></defs><g id="Layer_2" data-name="Layer 2"><g id="Layer_1-2" data-name="Layer 1"><path class="cls-1" d="M18.17,23.35a.44.44,0,0,1,0-.87h.68a.44.44,0,0,1,0,.87Z"/><path class="cls-1" d="M18.17,27.25a.44.44,0,0,1,0-.87h.68a.44.44,0,0,1,0,.87Z"/><path class="cls-1" d="M18.17,31.14a.43.43,0,0,1,0-.86h.68a.43.43,0,0,1,0,.86Z"/><path class="cls-1" d="M18.17,35a.43.43,0,0,1,0-.86h.68a.43.43,0,0,1,0,.86Z"/><path class="cls-1" d="M26.35,12.72a.43.43,0,0,1-.43-.43.43.43,0,0,1,.43-.43h4.49a.44.44,0,0,1,.43.43.43.43,0,0,1-.43.43Z"/><path class="cls-1" d="M26.35,17.11a.43.43,0,0,1,0-.86h4.49a.43.43,0,0,1,0,.86Z"/><path class="cls-1" d="M26.35,21.5a.44.44,0,0,1,0-.87h4.49a.44.44,0,0,1,0,.87Z"/><path class="cls-1" d="M26.35,25.88a.43.43,0,0,1,0-.86h4.49a.43.43,0,0,1,0,.86Z"/><path class="cls-1" d="M26.35,30.27a.44.44,0,0,1,0-.87h4.49a.44.44,0,0,1,0,.87Z"/><path class="cls-1" d="M26.35,34.65a.43.43,0,0,1,0-.86h4.49a.43.43,0,0,1,0,.86Z"/><path class="cls-1" d="M.43,40.4a.43.43,0,0,1,0-.86H3.36V30.76a.43.43,0,0,1,.43-.43l5.71,0V19.12a.44.44,0,0,1,.43-.44h2.79v-3a.44.44,0,0,1,.43-.44h6.33a.44.44,0,0,1,.43.44v3h2.94l0-.29V.43A.46.46,0,0,1,23.11,0a.65.65,0,0,1,.19,0,.39.39,0,0,1,.26.09l12.7,9.58a.43.43,0,0,1,.17.35V25.8h4.49a.43.43,0,0,1,.43.43V39.54H43.8a.43.43,0,0,1,0,.86Zm36-.86h4.06V26.66H36.43Zm-12.69,0H35.57V10.23L23.74,1.3Zm-13.38,0H22.87v-20h-.35l-.05,0h-3a.43.43,0,0,1-.43-.43v-3H13.58v3a.43.43,0,0,1-.43.43H10.36v2.93h4.49a.44.44,0,0,1,0,.87H10.36v3h4.49a.44.44,0,0,1,0,.87H10.36v3h4.49a.43.43,0,1,1,0,.86H10.36v3h4.49a.43.43,0,0,1,0,.86H10.36ZM4.22,31.19v8.35H9.5V31.15Z"/></g></g></svg>