<svg xmlns="http://www.w3.org/2000/svg" viewBox="0 0 20 20"><defs><style>.cls-1{fill:#b4b3b3;}</style></defs><g id="Layer_2" data-name="Layer 2"><g id="Layer_1-2" data-name="Layer 1"><path class="cls-1" d="M5.4,20a5.35,5.35,0,0,1-3.8-1.6,5.33,5.33,0,0,1,0-7.61L5.94,6.45a3.44,3.44,0,0,1,2.45-1,3.46,3.46,0,0,1,2.44,5.9L8.12,14.05a.79.79,0,0,1-1.09,0A.77.77,0,0,1,7,13l2.72-2.71A1.92,1.92,0,0,0,7,7.53L2.68,11.88a3.8,3.8,0,0,0,0,5.43,3.81,3.81,0,0,0,5.44,0l9.19-9.2a3.84,3.84,0,1,0-5.43-5.43l-1.05,1a.76.76,0,0,1-.54.22.77.77,0,0,1-.54-.22.76.76,0,0,1,0-1.09l1-1a5.32,5.32,0,0,1,7.61,0,5.31,5.31,0,0,1,0,7.6L9.2,18.4A5.35,5.35,0,0,1,5.4,20Z"/></g></g></svg>