<svg xmlns="http://www.w3.org/2000/svg" viewBox="0 0 17.37 17.36"><defs><style>.cls-1{fill:#3fad00;}</style></defs><g id="Layer_2" data-name="Layer 2"><g id="Layer_1-2" data-name="Layer 1"><path class="cls-1" d="M8.68,17.36c-.11,0-.43,0-.44-.5V15L7.93,15A6.49,6.49,0,0,1,2.4,9.45l-.06-.31H.54C.3,9.14,0,9.06,0,8.69s.34-.45.54-.46H2a.48.48,0,0,0,.18,0h0l.2-.08,0-.21A6.45,6.45,0,0,1,7.92,2.4l.32-.06V.57c0-.57.34-.57.45-.57h0c.11,0,.44,0,.44.55v1.8l.31.06A6.41,6.41,0,0,1,15,7.92l.07.31h1.65c.69,0,.69.28.69.45s-.06.28-.09.3a.92.92,0,0,1-.62.16H15L15,9.46A6.49,6.49,0,0,1,9.45,15L9.14,15v1.81c0,.51-.33.51-.45.51Zm-.13-14a5.41,5.41,0,0,0-3.88,9,5.45,5.45,0,0,0,3.82,1.76h.25a5.32,5.32,0,0,0,3.63-1.43,5.4,5.4,0,0,0,1.69-3.77A5.25,5.25,0,0,0,12.65,5,5.32,5.32,0,0,0,8.9,3.32Z"/><path class="cls-1" d="M8.67,11.18A2.49,2.49,0,0,1,6.2,8.66,2.5,2.5,0,0,1,8.7,6.19h0A2.53,2.53,0,0,1,11.18,8.7a2.49,2.49,0,0,1-2.49,2.48Z"/></g></g></svg>