<svg xmlns="http://www.w3.org/2000/svg" viewBox="0 0 435.93 374.82"><defs><style>.cls-1{fill:#de7e7e;opacity:0.4;}.cls-2{fill:#d80a17;}.cls-3{fill:none;}.cls-4{fill:#fff;}</style></defs><g id="Layer_2" data-name="Layer 2"><g id="Layer_1-2" data-name="Layer 1"><path class="cls-1" d="M164.87,55.91H171a1,1,0,0,1,0,1.91h-5.27l1.06,1.33a14.46,14.46,0,0,0,25.68-7l.13-.93H181.48a1,1,0,1,1,0-1.9h11.16l-.11-.93a14.49,14.49,0,1,0-27.87,7Z"/><path class="cls-2" d="M70.23,19.36h9.84a.94.94,0,1,0,0-1.88H77.66l.27-1.09a4.46,4.46,0,0,1,8-1.47,1,1,0,0,0,.78.41h.14a1,1,0,0,0,.76-.65,9.11,9.11,0,0,1,17.57.83l.24,1.07h-3.85a.94.94,0,1,0,0,1.88h10.94a.94.94,0,0,0,0-1.88h-5.25l-.11-.75A11.06,11.06,0,0,0,96.31,6.45a10.9,10.9,0,0,0-9.43,5.33l-.47.77-.76-.48A6.36,6.36,0,0,0,76,16.7l-.09.78H70.23a.94.94,0,1,0,0,1.88Z"/><path class="cls-2" d="M276.66,69.87h9.84a.95.95,0,1,0,0-1.89h-2.41l.27-1.09a4.47,4.47,0,0,1,8-1.46,1,1,0,0,0,.78.41l.14,0a.94.94,0,0,0,.76-.64,9.11,9.11,0,0,1,17.57.82l.24,1.07H308A.95.95,0,0,0,308,69H319a.95.95,0,0,0,0-1.89h-5.25l-.11-.75A11.05,11.05,0,0,0,302.74,57a10.87,10.87,0,0,0-9.43,5.33l-.47.77-.76-.48a6.35,6.35,0,0,0-9.69,4.63l-.1.77h-5.63a.95.95,0,1,0,0,1.89Z"/><path class="cls-2" d="M312.15,12.91H322A.95.95,0,0,0,322,11h-2.41l.26-1.09a4.47,4.47,0,0,1,8-1.46.94.94,0,0,0,.77.41h.14a1,1,0,0,0,.76-.65A9.12,9.12,0,0,1,347.13,9l.23,1.07h-3.84a.95.95,0,1,0,0,1.89h10.94a.95.95,0,0,0,0-1.89h-5.25l-.11-.75A11.07,11.07,0,0,0,338.23,0a10.89,10.89,0,0,0-9.43,5.33l-.46.77-.76-.48a6.35,6.35,0,0,0-9.7,4.63l-.09.77h-5.64a.95.95,0,0,0,0,1.89Z"/><path class="cls-1" d="M123.29,363.71a9,9,0,0,0-1.88-5.49,8.82,8.82,0,0,0-1.83-1.78,9,9,0,0,0-5.3-1.74,9.05,9.05,0,0,0-4.86,1.42l-.45.32a8.1,8.1,0,0,0-.85.7,9.18,9.18,0,0,0-1,1.08c-.13.16-.24.32-.36.49a.89.89,0,0,1-1.63-.49.84.84,0,0,1,.15-.5,9.64,9.64,0,0,1,1-1.28,11.76,11.76,0,0,1,1.08-1,10.54,10.54,0,0,1,1.77-1.19.7.7,0,0,1,0-.14,12.32,12.32,0,0,0-.43-3.22,13.85,13.85,0,0,0-7.29-8.62,16.06,16.06,0,0,0-7.16-1.67,15.8,15.8,0,0,0-8.38,2.36,13.27,13.27,0,0,0-6.48,10.59c0,.11,0,.21,0,.31a8,8,0,0,1,1.19,1.88,7.57,7.57,0,0,1,.69,3.16A7.87,7.87,0,0,1,80.08,363a.9.9,0,0,1-.76.42.83.83,0,0,1-.47-.14.89.89,0,0,1-.29-1.23,6.08,6.08,0,0,0-2.49-8.65,6.13,6.13,0,0,0-2.67-.62A6,6,0,0,0,69.8,354a6.07,6.07,0,0,0-2.38,3.89c0,.22-.06.44-.08.66s0,.22,0,.33a.9.9,0,0,1-1.79,0c0-.25,0-.49,0-.74l0-.25a7.76,7.76,0,0,1,.53-1.93c.1-.24.21-.48.33-.71a4.13,4.13,0,0,0-1.89-.47H64.2a4.16,4.16,0,0,0-3.78,4.12s0,.06,0,.09l.14.19a9.87,9.87,0,0,1,.94,1.52,9.6,9.6,0,0,1,1,4.31.89.89,0,0,1-1.78,0,7.95,7.95,0,0,0-1.62-4.78,7.91,7.91,0,1,0-8.22,12.46H115A9,9,0,0,0,123.29,363.71Z"/><path class="cls-2" d="M165.88,351a11.15,11.15,0,0,0-10.61-14.54,11,11,0,0,0-3.08.45,14.47,14.47,0,0,0-.67-3.43,16.38,16.38,0,0,0-10.22-10.12,18.05,18.05,0,0,0-6.07-1c-8.43,0-15.56,5.68-16.81,13.3a8.1,8.1,0,0,0-10,1.57,6.37,6.37,0,0,0-2.84-.67,6.23,6.23,0,0,0-5.49,3.24,18.31,18.31,0,0,0-5.83-1c-8.44,0-15.57,5.68-16.82,13.3a8.15,8.15,0,0,0-4-1.07,8.06,8.06,0,0,0-3.82,1,8.29,8.29,0,0,0-2,1.48l-.2.19a6.31,6.31,0,0,0-2.84-.67h-.36a6.25,6.25,0,0,0-2,.47,6.36,6.36,0,0,0-3.52,3.72,9.87,9.87,0,0,0-5.85-1.89,10.06,10.06,0,0,0-6.13,18l.1.07h4.11l.09-.69a7.57,7.57,0,1,1,7.85-11.91,7.41,7.41,0,0,1,.89,1.5,7.55,7.55,0,0,1,.65,3.07,1.25,1.25,0,0,0,2.49,0,10.11,10.11,0,0,0-2-6l0-.08a3.77,3.77,0,0,1,1.69-3.13,3.81,3.81,0,0,1,1.77-.63h.35a3.74,3.74,0,0,1,1.42.28,3.79,3.79,0,0,0-.18.42,7.74,7.74,0,0,0-.56,2c0,.06,0,.27,0,.27,0,.25,0,.51,0,.77a1.25,1.25,0,1,0,2.49,0,1.34,1.34,0,0,1,0-.2v-.11q0-.31.06-.63a5.73,5.73,0,0,1,5.64-4.78,5.64,5.64,0,0,1,2.51.59,5.77,5.77,0,0,1,2,1.63,5.62,5.62,0,0,1,1.2,3.5,5.72,5.72,0,0,1-.85,3,1.23,1.23,0,0,0,.39,1.71,1.21,1.21,0,0,0,.66.19,1.25,1.25,0,0,0,1.06-.59,8.14,8.14,0,0,0,1.24-4.33,8,8,0,0,0-.73-3.31,8.56,8.56,0,0,0-1.15-1.85v-.17a13,13,0,0,1,6.31-10.32,15.52,15.52,0,0,1,8.19-2.3,15.7,15.7,0,0,1,7,1.64,13.47,13.47,0,0,1,7.11,8.39,12.34,12.34,0,0,1,.42,3.07,11.61,11.61,0,0,0-1.61,1.12,10.23,10.23,0,0,0-1.12,1.07,11.34,11.34,0,0,0-1,1.32,1.18,1.18,0,0,0-.21.7,1.24,1.24,0,0,0,.55,1,1.2,1.2,0,0,0,.69.21,1.26,1.26,0,0,0,1-.55,5.59,5.59,0,0,1,.33-.47,9.38,9.38,0,0,1,1-1.05,10.28,10.28,0,0,1,.81-.67c.15-.11.29-.21.44-.3a8.62,8.62,0,0,1,9.76.3,8.44,8.44,0,0,1,1.76,1.72,8.56,8.56,0,0,1,1.81,5.27,8.69,8.69,0,0,1-8,8.62H103.23v.7l11.42.1h5.57l.09-.05.16-.11a11.1,11.1,0,0,0,3.41-14.93,11.28,11.28,0,0,0-1.37-1.84,11.15,11.15,0,0,0-8.22-3.64,11,11,0,0,0-3.07.45,15.55,15.55,0,0,0-.29-2,13.94,13.94,0,0,1,9.59-7.78,15.91,15.91,0,0,1,1.77-.29,14.68,14.68,0,0,1,1.48-.08,14.31,14.31,0,0,1,5.38,1,13.57,13.57,0,0,1,8.6,12v.09c0,.11,0,.22,0,.33a.71.71,0,0,0,0,.14l0,.1s0,.08,0,.12a2.46,2.46,0,0,0,0,.28,1.25,1.25,0,1,0,2.49,0,4.89,4.89,0,0,1,0-.54c0-.16,0-.32,0-.48a6.82,6.82,0,0,1,6.69-5.75,6.71,6.71,0,0,1,6.65,5.75,2.91,2.91,0,0,1,0,.31v.07a13.26,13.26,0,0,0-.8,1.55,12,12,0,0,0-1,4.79,1.25,1.25,0,1,0,2.49,0,9.62,9.62,0,0,1,1.12-4.51l0-.08a1.23,1.23,0,0,0,.7-1.11h0a8.36,8.36,0,0,1,.54-.68l.14-.16a9.73,9.73,0,0,1,5.45-3,10,10,0,0,1,1.72-.16l.27,0h.18a9.72,9.72,0,0,1,4.07,18.31,9.83,9.83,0,0,1-3.2,1l.05.7h5.13l.08-.06A12.21,12.21,0,0,0,165.88,351Zm-56-2.76a16.27,16.27,0,0,0-7.46-7.52,3.81,3.81,0,0,1,3.19-1.71,3.89,3.89,0,0,1,1.41.28,8.11,8.11,0,0,0-.8,3.47,1.25,1.25,0,1,0,2.49,0,5.72,5.72,0,0,1,11.23-1.54A16.49,16.49,0,0,0,109.84,348.2Zm25.39-23.43a15.93,15.93,0,0,1,4.86.76,13.62,13.62,0,0,1,9.44,10.1,11.53,11.53,0,0,1,.23,2.25,11.11,11.11,0,0,0-3.16,2.68c-.24.3-.44.57-.61.82a1.25,1.25,0,0,0-.18.94,1.25,1.25,0,0,0,1.22,1,1.25,1.25,0,0,0,1-.55,8.79,8.79,0,0,1,1.51-1.72,8.66,8.66,0,0,1,13.7,9.81,12.13,12.13,0,0,0-7.58,3.38,9.29,9.29,0,0,0-8.68-6.15,9.14,9.14,0,0,0-7.52,3.92,16.23,16.23,0,0,0-9.9-10.24,16.64,16.64,0,0,0-5.83-1c-.43,0-.89,0-1.4.07a8.5,8.5,0,0,0-1.64-3.24C120.94,330.49,127.42,324.77,135.23,324.77Z"/><path class="cls-1" d="M369.83,354.88a9,9,0,0,0-7.5,4,.88.88,0,0,1-1.23.24.9.9,0,0,1-.25-1.24,10.9,10.9,0,0,1,3.86-3.51.61.61,0,0,1,0-.13c0-7.45-6.68-13.51-14.88-13.51a17.92,17.92,0,0,0-1.95.11,16.31,16.31,0,0,0-4.74,1.33A13.5,13.5,0,0,0,334.93,354a7.78,7.78,0,0,1,.7,9.19.89.89,0,1,1-1.51-.94,6.08,6.08,0,1,0-11.24-3.2.9.9,0,0,1-1.79,0,7.72,7.72,0,0,1,.94-3.64,4.2,4.2,0,0,0-1.9-.47,4.14,4.14,0,0,0-3.07,1.35,4.09,4.09,0,0,0-1.09,2.79s0,.05,0,.08a9.69,9.69,0,0,1,2.1,6,.89.89,0,1,1-1.78,0,7.92,7.92,0,1,0-8.87,7.87c.31,0,.63.06,1,.06h46l4.92-.06,10.48-.14h.05a9,9,0,1,0,0-18Z"/><path class="cls-2" d="M434.86,372.68H375.54l.1-.07H364.33l-5,.07-4.92.06h-46a7.46,7.46,0,0,1-1-.06l-.39-.07H302.6l.08.07H120.26l-.15.1h-5.47l-2.88,0-8.53-.08H1.07a1.07,1.07,0,1,0,0,2.14H434.86a1.07,1.07,0,0,0,0-2.14Z"/><path class="cls-3" d="M343.11,332.89l-5.91-5.18v12.73h4.68c.4-.2.81-.39,1.23-.56Z"/><path class="cls-3" d="M338.16,325.36l4.95,4.34V304.83l-5.91-5.45v25.7l.17,0A1.19,1.19,0,0,1,338.16,325.36Z"/><path class="cls-1" d="M86.29,253.36a1.33,1.33,0,0,1-.6,1.77l-5.1,2.52a6.42,6.42,0,1,0-1.9-4.56,6.53,6.53,0,0,0,.44,2.34l5.39-2.67A1.33,1.33,0,0,1,86.29,253.36Z"/><path class="cls-1" d="M51.06,266.53A6.59,6.59,0,1,0,55.45,278l-3.72-2.81a1,1,0,0,1-.37-.64,1,1,0,0,1,.19-.71,1,1,0,0,1,.76-.38.91.91,0,0,1,.58.2l3.79,2.86a6.49,6.49,0,0,0,1-3.41A6.6,6.6,0,0,0,51.06,266.53Z"/><path class="cls-1" d="M91.38,307.86A4.91,4.91,0,1,0,88.47,299L90,300.66a1,1,0,0,1,.25.69.94.94,0,0,1-.31.67,1,1,0,0,1-1.36-.06l-1.39-1.52a4.9,4.9,0,0,0,4.21,7.42Z"/><path class="cls-1" d="M75.27,240.24a9.22,9.22,0,1,0-10.36,9.15l.18-7.2a1,1,0,0,1,1.92,0l.18,7.2A9.24,9.24,0,0,0,75.27,240.24Z"/><path class="cls-1" d="M100.93,288.92a9.65,9.65,0,1,0-9.64-9.64,9.5,9.5,0,0,0,.86,4l4.67-2.34a.92.92,0,0,1,.43-.11,1,1,0,0,1,.86.53,1,1,0,0,1-.43,1.29l-4.57,2.3A9.62,9.62,0,0,0,100.93,288.92Z"/><path class="cls-4" d="M66.46,297.19l0-.8A1,1,0,0,0,66.46,297.19Z"/><path d="M65.09,320.09a.29.29,0,0,0,0-.09l0,.63A.91.91,0,0,0,65.09,320.09Z"/><path class="cls-1" d="M85.69,255.13a1.32,1.32,0,0,0-1.17-2.37l-5.39,2.67.14.33,5.41-2.68a1.08,1.08,0,0,1,.43-.1,1,1,0,0,1,.86.54,1,1,0,0,1-.44,1.29l-5.19,2.56a3.33,3.33,0,0,0,.25.28Z"/><path class="cls-2" d="M100.93,267.71a11.55,11.55,0,0,0-10.5,16.38l-10.84,5.44a1.06,1.06,0,0,0-.31,0,.93.93,0,0,0-.64.25,1,1,0,0,0-.26.41l-10,5-.77-31.09v-.39l11-5.45a3.11,3.11,0,0,0,.23.28,8.21,8.21,0,1,0-1.4-2.25l.15.33-10.06,5v-.39l-.24-9.87a11.14,11.14,0,1,0-2.38,0l-.77,30.82-5.87-4.44A8.5,8.5,0,1,0,57,279.19l7,5.31-.85,34-6.39-4.17a1,1,0,0,0-.52-.15,1,1,0,0,0-.81.43.92.92,0,0,0-.13.72.94.94,0,0,0,.41.61l7.39,4.81-.82,32.67a5.68,5.68,0,0,1,1.93-.45l.81-32.35,0-.63.62-25,.38-10.74.37,12.17,0,.8,1.41,56.16a8,8,0,0,1,1.88-1.42L68.39,297.3l10.88-5.46L85.83,299a6.82,6.82,0,1,0,1.33-1.4L81.05,291l10.32-5.18a11.56,11.56,0,1,0,9.56-18.06Zm-21.8-12.28a6.53,6.53,0,0,1-.44-2.34,6.42,6.42,0,1,1,1.9,4.56,3.33,3.33,0,0,1-.25-.28l5.19-2.56a1,1,0,0,0,.44-1.29,1,1,0,0,0-.86-.54,1.08,1.08,0,0,0-.43.1l-5.41,2.68ZM51.06,279.7a6.59,6.59,0,1,1,6.59-6.58,6.49,6.49,0,0,1-1,3.41l-3.79-2.86a.91.91,0,0,0-.58-.2,1,1,0,0,0-.76.38,1,1,0,0,0-.19.71,1,1,0,0,0,.37.64L55.45,278A6.54,6.54,0,0,1,51.06,279.7Zm5.77-39.46a9.22,9.22,0,1,1,10.36,9.15l-.18-7.2a1,1,0,0,0-1.92,0l-.18,7.2A9.24,9.24,0,0,1,56.83,240.24Zm34.55,57.81a4.92,4.92,0,1,1-4.21,2.39L88.56,302a1,1,0,0,0,1.36.06.94.94,0,0,0,.31-.67,1,1,0,0,0-.25-.69L88.47,299A4.88,4.88,0,0,1,91.38,298.05Zm9.55-9.13a9.62,9.62,0,0,1-7.82-4l4.57-2.3a1,1,0,0,0,.43-1.29,1,1,0,0,0-.86-.53.92.92,0,0,0-.43.11l-4.67,2.34a9.5,9.5,0,0,1-.86-4,9.65,9.65,0,1,1,9.64,9.64Z"/><path class="cls-1" d="M109.79,348.61a16.07,16.07,0,0,1,10.54-7.51,6.08,6.08,0,0,0-12,1.27.89.89,0,1,1-1.78,0,7.79,7.79,0,0,1,.93-3.63,4.13,4.13,0,0,0-1.89-.47,4.18,4.18,0,0,0-3.69,2.21A15.9,15.9,0,0,1,109.79,348.61Z"/><path class="cls-1" d="M123.76,340.72a16.28,16.28,0,0,1,5.7,1,15.89,15.89,0,0,1,9.91,10.75,8.84,8.84,0,0,1,16.16,2.05,11.86,11.86,0,0,1,8-3.7,8.82,8.82,0,0,0,.78-3.63,9,9,0,0,0-16.51-5,.89.89,0,1,1-1.49-1,9.63,9.63,0,0,1,.6-.79,10.75,10.75,0,0,1,3.26-2.72c0-.05,0-.09,0-.14a12.37,12.37,0,0,0-.23-2.37,14,14,0,0,0-9.68-10.36,16.21,16.21,0,0,0-5-.78c-8.11,0-14.71,5.93-14.86,13.26a7.94,7.94,0,0,1,1.71,3.49A15.62,15.62,0,0,1,123.76,340.72Z"/><path class="cls-1" d="M164.58,352.65c-.15,0-.3,0-.46,0a10.43,10.43,0,0,0-1.78.16,10.1,10.1,0,0,0-5.65,3.15l-.18.2a8.84,8.84,0,0,0-.6.77s0,.07,0,.1a.9.9,0,0,1-.61.84l-.09.18a10,10,0,0,0-1.16,4.69.9.9,0,0,1-1.79,0,12.19,12.19,0,0,1,1.8-6.27,1.37,1.37,0,0,0,0-.19c0-.11,0-.22,0-.32a7.09,7.09,0,0,0-14,0c0,.16,0,.33-.07.51s0,.37,0,.56a.9.9,0,1,1-1.79,0c0-.14,0-.28,0-.43l0-.13s0-.05,0-.08,0-.29,0-.43a13.88,13.88,0,0,0-8.82-12.35,14.62,14.62,0,0,0-5.51-1.07c-.51,0-1,0-1.52.08a15.18,15.18,0,0,0-1.81.3,14.24,14.24,0,0,0-9.88,8.09,13.8,13.8,0,0,1,.33,2.5,10.65,10.65,0,0,1,11.36,3,10.53,10.53,0,0,1,1.32,1.78,10.67,10.67,0,0,1,1.52,5.49,10.78,10.78,0,0,1-4.82,9h45.23a9.81,9.81,0,0,0,3.31-1.06,10.07,10.07,0,0,0-4.22-19Z"/><path class="cls-1" d="M351.57,246.85a7.16,7.16,0,1,0-7.44,7.15l.18,0,.25,0A7.16,7.16,0,0,0,351.57,246.85Z"/><path class="cls-1" d="M365.24,315.13a9.17,9.17,0,1,0-9.17-9.17A9.18,9.18,0,0,0,365.24,315.13Z"/><path d="M344.13,253.63l.28,0h.15a1,1,0,0,0-.25,0Z"/><path class="cls-1" d="M324.5,274.08a12.3,12.3,0,1,0,12.32,12.33A12.33,12.33,0,0,0,324.5,274.08Z"/><path class="cls-2" d="M365.24,294.39a11.58,11.58,0,0,0-10.21,17L351,314.32l-5.43,3.87V278.57l7.87-4.66a1.2,1.2,0,0,0-.62-2.23,1.21,1.21,0,0,0-.61.16l-6.64,3.94V256.35a9.59,9.59,0,1,0-2.41,0v45.61l-5.91-5.45-1.1-1a16.46,16.46,0,0,0,1.1-1.62,14.76,14.76,0,1,0-2.73,3.39l2.73,2.52,5.91,5.45v24.86l-4.95-4.33a1.19,1.19,0,0,0-.79-.3l-.17,0a1.17,1.17,0,0,0-.73.39,1.2,1.2,0,0,0,.11,1.7l.62.54,5.91,5.18v7a17.36,17.36,0,0,1,2.41-.77v-6.22a1.19,1.19,0,0,0,0-.92v-11.2l5.43-3.87,5.43-3.87a11.57,11.57,0,1,0,8.86-19Zm-40.74,4.34a12.37,12.37,0,1,1,11.52-8A12.33,12.33,0,0,1,324.5,298.73ZM344.56,254h-.43a7.23,7.23,0,1,1,.43,0Zm20.68,61.13a9.17,9.17,0,1,1,9.17-9.17A9.18,9.18,0,0,1,365.24,315.13Z"/><path class="cls-2" d="M369.83,352.74a11.35,11.35,0,0,0-3.07.45c-.6-8.21-8-14.58-17-14.58a18.39,18.39,0,0,0-4.37.52,19,19,0,0,0-2.45.79q-.62.25-1.26.57A15.77,15.77,0,0,0,333,351.9a8.1,8.1,0,0,0-10,1.57,6.28,6.28,0,0,0-8.37,2.66,5.8,5.8,0,0,0-.4.88,10,10,0,0,0-9.88-1,10,10,0,0,0-1.93,17.29l.09.07H307l.06-.7a7.56,7.56,0,1,1,8.84-7.45,1.25,1.25,0,1,0,2.49,0,10,10,0,0,0-2.08-6.12,3.76,3.76,0,0,1,1-2.53,3.82,3.82,0,0,1,2.81-1.24,3.76,3.76,0,0,1,1.42.29,7.94,7.94,0,0,0-.81,3.47,1.25,1.25,0,0,0,2.49,0,5.73,5.73,0,1,1,10.59,3,1.24,1.24,0,1,0,2.11,1.32,8.19,8.19,0,0,0,1.24-4.33,8.07,8.07,0,0,0-1.88-5.17,13.11,13.11,0,0,1,8-11.37,15.35,15.35,0,0,1,2.35-.85,16.72,16.72,0,0,1,2.28-.45,17.91,17.91,0,0,1,1.91-.11c8,0,14.49,5.87,14.53,13.1a11.22,11.22,0,0,0-3.77,3.51,1.25,1.25,0,0,0,1,1.94,1.24,1.24,0,0,0,1-.56,8.66,8.66,0,1,1,7.2,13.46h-.1l-5.4.07v.7h11.41l.09-.05a11.14,11.14,0,0,0-6-20.54Z"/></g></g></svg>