<svg xmlns="http://www.w3.org/2000/svg" viewBox="0 0 8.5 13.45"><defs><style>.cls-1{fill:#cd083a;}</style></defs><g id="Layer_2" data-name="Layer 2"><g id="Layer_1-2" data-name="Layer 1"><path class="cls-1" d="M7.4,0H1.15A1.12,1.12,0,0,0,0,1.1V12.35a1.12,1.12,0,0,0,1.15,1.1h6.2a1.09,1.09,0,0,0,1.15-1.1V1.05A1.07,1.07,0,0,0,7.4,0ZM1.15,1H7.4a.17.17,0,0,1,.1.05V9.2H1V1.1C1,1.05,1.1,1,1.15,1Zm6.2,11.45H1.15s-.15,0-.15-.1V10.2H7.5v2.15C7.5,12.4,7.5,12.45,7.35,12.45ZM5,11.3a.75.75,0,1,1-.75-.75A.77.77,0,0,1,5,11.3Z"/></g></g></svg>