<svg xmlns="http://www.w3.org/2000/svg" viewBox="0 0 15.15 16.32"><defs><style>.cls-1{fill:#cd083a;}</style></defs><g id="Layer_2" data-name="Layer 2"><g id="Layer_1-2" data-name="Layer 1"><path class="cls-1" d="M7.58,8.19a4.1,4.1,0,1,0-4.1-4.1A4.09,4.09,0,0,0,7.58,8.19Zm0-7A2.89,2.89,0,1,1,4.69,4.09,2.88,2.88,0,0,1,7.58,1.21Z"/><path class="cls-1" d="M10,9H5.16A5.15,5.15,0,0,0,0,14.18v.64a1.5,1.5,0,0,0,1.51,1.5H13.64a1.5,1.5,0,0,0,1.51-1.5v-.64A5.15,5.15,0,0,0,10,9Zm3.95,5.79a.29.29,0,0,1-.3.29H1.51a.29.29,0,0,1-.3-.29v-.64a3.94,3.94,0,0,1,4-3.94H10a3.94,3.94,0,0,1,3.95,3.94Z"/></g></g></svg>