<svg xmlns="http://www.w3.org/2000/svg" viewBox="0 0 14.68 15"><defs><style>.cls-1{fill:#db0a16;}</style></defs><g id="Layer_2" data-name="Layer 2"><g id="Layer_1-2" data-name="Layer 1"><path class="cls-1" d="M0,9.69l.07,0A4.19,4.19,0,0,1,2.5,8.81a3.88,3.88,0,0,1,.82.09,4.23,4.23,0,0,1,1.59.75L8.19,12a.86.86,0,0,0,.43.15h.1l.13-.06a3.79,3.79,0,0,0,.45-.29l.65-.43L.12,4l1.14-.57c1.18-.6,2.36-1.19,3.53-1.8A15,15,0,0,0,7.35,0l7.33,5.3a3.64,3.64,0,0,1-2.34.86,3,3,0,0,1-.51,0,5,5,0,0,1-2.21-.89L6.4,3A.82.82,0,0,0,6,2.9h-.1L5.76,3c-.15.08-.3.18-.45.28l-.68.45,9.84,6.82-.37.18A49.2,49.2,0,0,0,8.6,14c-.36.25-.71.52-1.06.79L7.3,15Z"/></g></g></svg>