<svg xmlns="http://www.w3.org/2000/svg" viewBox="0 0 20 20"><defs><style>.cls-1{fill:#00a100;}</style></defs><g id="Layer_2" data-name="Layer 2"><g id="Layer_1-2" data-name="Layer 1"><path class="cls-1" d="M19.9,8.65a9.81,9.81,0,0,0-1.77-4.46A9.89,9.89,0,0,0,16,2,9.66,9.66,0,0,0,12.24.26c-.5-.1-1-.15-1.51-.23l-.12,0H9.39L8.65.1A9.77,9.77,0,0,0,5,1.33,10,10,0,0,0,2,4,9.42,9.42,0,0,0,.27,7.74c-.11.5-.16,1-.24,1.51l0,.14v1.22l.09.69a9.68,9.68,0,0,0,1.34,3.84A10.09,10.09,0,0,0,8,19.79c.42.08.84.12,1.26.18l.17,0h1.22l.69-.09a9.68,9.68,0,0,0,3.84-1.34A10.07,10.07,0,0,0,19.79,12c.09-.41.12-.83.18-1.24l0-.17V9.39C20,9.15,19.94,8.9,19.9,8.65Zm-9.83,10a8.65,8.65,0,1,1,8.58-8.92A8.69,8.69,0,0,1,10.07,18.65Z"/><path class="cls-1" d="M8.71,13.37,6,10.61a.65.65,0,0,1,0-.93.67.67,0,0,1,.93,0l1.83,1.83L13.12,7.1a.66.66,0,1,1,.93.93Z"/></g></g></svg>