<svg xmlns="http://www.w3.org/2000/svg" viewBox="0 0 16.48 17.69"><defs><style>.cls-1{fill:#bababa;}</style></defs><g id="Layer_2" data-name="Layer 2"><g id="Layer_1-2" data-name="Layer 1"><path class="cls-1" d="M10.05,17.69a.38.38,0,0,1-.37-.37V12.25H6.8v5.07a.38.38,0,0,1-.38.37H2.19a.38.38,0,0,1-.38-.37V8.62H.37A.37.37,0,0,1,0,8.39.36.36,0,0,1,.11,8L8,.11A.39.39,0,0,1,8.24,0,.36.36,0,0,1,8.5.11L16.37,8a.39.39,0,0,1,.08.4.38.38,0,0,1-.35.24H14.66v8.7a.38.38,0,0,1-.37.37Zm0-6.19a.38.38,0,0,1,.38.37v5.07h3.48V8.62H2.56v8.32H6.05V11.87a.38.38,0,0,1,.37-.37ZM1.27,7.87H15.2l-7-7Z"/></g></g></svg>