<svg xmlns="http://www.w3.org/2000/svg" viewBox="0 0 17.38 14.92"><defs><style>.cls-1{fill:#bababa;}</style></defs><g id="Layer_2" data-name="Layer 2"><g id="Layer_1-2" data-name="Layer 1"><path class="cls-1" d="M2.63,14.92A2.63,2.63,0,0,1,0,12.29V5A2.63,2.63,0,0,1,2.63,2.37H4.51V1.08A1.08,1.08,0,0,1,5.6,0h6.18a1.07,1.07,0,0,1,1.08,1.09V2.37h1.89A2.65,2.65,0,0,1,17.38,5v7.29a2.63,2.63,0,0,1-2.63,2.63Zm-2-2.62a2,2,0,0,0,2,2H14.75a2,2,0,0,0,1.43-.6,2,2,0,0,0,.58-1.42V7.61L16.3,8A3.35,3.35,0,0,1,14,9H10.35v.76a1.08,1.08,0,0,1-1.08,1.08H8.11A1.08,1.08,0,0,1,7,9.71V9H3.4A3.34,3.34,0,0,1,1.08,8L.62,7.6ZM8.1,6.9a.48.48,0,0,0-.46.46V9.69a.47.47,0,0,0,.46.46H9.27a.46.46,0,0,0,.46-.46V7.37a.47.47,0,0,0-.46-.47H8.1ZM2.63,3a2,2,0,0,0-2,2v.54A2.79,2.79,0,0,0,3.4,8.33H7v-1A1.08,1.08,0,0,1,8.11,6.28H9.27a1.08,1.08,0,0,1,1.08,1.09v.94H14a2.79,2.79,0,0,0,2.78-2.78V5a2,2,0,0,0-2-2Zm3-2.37a.46.46,0,0,0-.46.47V2.37h7.12V1.08a.47.47,0,0,0-.46-.46Z"/></g></g></svg>