<svg xmlns="http://www.w3.org/2000/svg" viewBox="0 0 58.85 25.13"><g id="Layer_2" data-name="Layer 2"><g id="Layer_1-2" data-name="Layer 1"><path d="M58.15,15a.35.35,0,0,0,0-.13,6.72,6.72,0,0,0-.89-2.09c-2.12-3-7.21-4.33-11.16-4.94C44.78,7,35.27,1,30.83.4a88.64,88.64,0,0,0-22.36.71.67.67,0,0,0-.54.81.68.68,0,0,0,.81.54,54.41,54.41,0,0,1,6.13-.77,24,24,0,0,0-4.36,5.15.68.68,0,0,0,0,.65.69.69,0,0,0,.54.39c2.51.36,32.92,1.26,34.7,1.32a30.27,30.27,0,0,1,5.92,1.46,5.28,5.28,0,0,0,1.12,3.45c1.06,1.26,3.15,1.61,4.16,1.71A29.88,29.88,0,0,1,57.47,21H51.9a4.6,4.6,0,0,0,.11-1,5.21,5.21,0,1,0-10.41,0,6,6,0,0,0,.1,1L13.89,21A5.45,5.45,0,0,0,14,19.93a5.21,5.21,0,1,0-10.41,0,2.26,2.26,0,0,0,0,.25,4.66,4.66,0,0,1-2-.71,9,9,0,0,1,.44-5h.1C5,14.42,7,10.45,7.23,10a.65.65,0,0,0,0-.62A.66.66,0,0,0,6.72,9a12.89,12.89,0,0,0-1.57-.11A30.82,30.82,0,0,1,9.62,4.4a.71.71,0,0,0,.09-1,.72.72,0,0,0-1-.09C-2.12,12.39.17,19.67.27,20l0,.08c.36.75,1.81,1.25,3.58,1.6a5.21,5.21,0,0,0,9.5.74c4.2,0,17.72,0,28.83,0a5.2,5.2,0,0,0,9.2,0h6.75a.7.7,0,0,0,.69-.69A29.37,29.37,0,0,0,58.15,15ZM19.45,6.93c-3.09-.11-5.67-.24-7.11-.33a20.67,20.67,0,0,1,5-5.07c1-.06,2.06-.09,3.08-.11C20.13,2.91,19.6,5.74,19.45,6.93ZM20.83,7c.15-1,.57-3.37,1-5.58a70.69,70.69,0,0,1,8.82.38c3.12.41,9.3,4,12.6,6C38.57,7.6,28.49,7.27,20.83,7Zm33,6.24a3.52,3.52,0,0,1-.77-2,8.07,8.07,0,0,1,3,2.34,3.5,3.5,0,0,1,.39.75A4.65,4.65,0,0,1,53.83,13.22Zm-49.7-3c.29,0,.81,0,1.33,0-.66,1-1.74,2.37-2.88,2.67A19.46,19.46,0,0,1,4.13,10.26ZM8.8,23.19a3.27,3.27,0,1,1,3.26-3.26A3.27,3.27,0,0,1,8.8,23.19Zm38,0A3.24,3.24,0,1,1,50,19.93,3.24,3.24,0,0,1,46.81,23.16Z"/></g></g></svg>