<svg xmlns="http://www.w3.org/2000/svg" viewBox="0 0 14.61 17.69"><defs><style>.cls-1{fill:#bababa;}</style></defs><g id="Layer_2" data-name="Layer 2"><g id="Layer_1-2" data-name="Layer 1"><path class="cls-1" d="M14.5,7,13.08,5.61,9.23,1.76,7.58.11A.38.38,0,0,0,7,.11L.11,7A.37.37,0,0,0,0,7.31v10a.38.38,0,0,0,.38.38H14.23a.38.38,0,0,0,.38-.38v-10A.37.37,0,0,0,14.5,7ZM9.61,16.92H5V9.23H9.61Zm4.23,0H10.38V8.85A.38.38,0,0,0,10,8.46H4.61a.38.38,0,0,0-.38.39v8.07H.77V7.47L7.31.93l6.53,6.54Z"/></g></g></svg>