<svg xmlns="http://www.w3.org/2000/svg" viewBox="0 0 45.59 25.88"><defs><style>.cls-1{fill:#d6d6d6;}</style></defs><g id="Layer_2" data-name="Layer 2"><g id="Layer_1-2" data-name="Layer 1"><path class="cls-1" d="M4.18,25.84a.43.43,0,0,1-.24-.08.42.42,0,0,1-.12-.59L19.16,2.39a.45.45,0,0,1,.36-.2.41.41,0,0,1,.35.2L35.24,25.11a.43.43,0,0,1-.12.6.4.4,0,0,1-.24.07.44.44,0,0,1-.36-.19L19.52,3.4l-15,22.25A.44.44,0,0,1,4.18,25.84Z"/><path class="cls-1" d="M15.65,25.88l-.14,0a.43.43,0,0,1-.25-.23.4.4,0,0,1,0-.32l3.92-10.89a.62.62,0,0,1,.12-.19l.05,0v0a.48.48,0,0,1,.27-.09s0,0,.07,0a.45.45,0,0,1,.21.13l5.79,7.08a.42.42,0,0,1,0,.51l-2.47,3.84a.43.43,0,0,1-.37.2.45.45,0,0,1-.41-.3l-2.93-9.66L16.06,25.6A.43.43,0,0,1,15.65,25.88ZM21.06,18l2,6.49,1.8-2.81-3.25-4Z"/><path class="cls-1" d="M.43,25.86A.43.43,0,0,1,0,25.43.43.43,0,0,1,.43,25H45.16a.43.43,0,0,1,.43.43.43.43,0,0,1-.43.43Z"/><path class="cls-1" d="M41.72,25.87a.42.42,0,0,1-.36-.19L25.76,3.15H19.48a.43.43,0,0,1-.43-.43V.43A.43.43,0,0,1,19.48,0a.43.43,0,0,1,.43.43V2.29H26a.44.44,0,0,1,.35.18L42.07,25.19a.46.46,0,0,1,.07.32.45.45,0,0,1-.18.28A.43.43,0,0,1,41.72,25.87Z"/><path class="cls-1" d="M26,3.2a.43.43,0,0,1-.43-.43V.43a.43.43,0,1,1,.86,0V2.77A.43.43,0,0,1,26,3.2Z"/><path class="cls-1" d="M4.18,25.84a.43.43,0,0,1-.39-.25l-1-2.15A.42.42,0,0,1,3,22.87a.39.39,0,0,1,.18,0,.41.41,0,0,1,.39.25l1,2.15a.43.43,0,0,1-.21.57A.39.39,0,0,1,4.18,25.84Z"/><path class="cls-1" d="M35.07,25.69a.48.48,0,0,1-.23-.07.44.44,0,0,1-.13-.6L36,23a.42.42,0,0,1,.36-.19.39.39,0,0,1,.23.07.38.38,0,0,1,.19.27.37.37,0,0,1-.06.32l-1.28,2A.45.45,0,0,1,35.07,25.69Z"/><path class="cls-1" d="M41.7,25.69a.48.48,0,0,1-.23-.07.4.4,0,0,1-.19-.27.48.48,0,0,1,.06-.33l1.29-2a.42.42,0,0,1,.36-.19.39.39,0,0,1,.23.07.42.42,0,0,1,.13.59l-1.29,2A.43.43,0,0,1,41.7,25.69Z"/></g></g></svg>