<svg xmlns="http://www.w3.org/2000/svg" viewBox="0 0 26.21 18.15"><defs><style>.cls-1{fill:#bfbfbf;}</style></defs><g id="Layer_2" data-name="Layer 2"><g id="Layer_1-2" data-name="Layer 1"><path class="cls-1" d="M22.1,10.19H17.62c-.59,0-.78.18-.78.77q0,1.54,0,3.09c0,.52.2.72.72.72h4.5c.52,0,.75-.2.75-.72,0-1.06,0-2.11,0-3.17C22.81,10.41,22.58,10.19,22.1,10.19Zm-.47,3.05c0,.27-.08.34-.32.34l-3.13,0-.16,0V12.41c0-.28,0-.56,0-.84s0-.17.17-.17h3.25c.13,0,.2,0,.2.18C21.63,12.13,21.64,12.68,21.63,13.24Z"/><path class="cls-1" d="M10.7,13.6H4a.54.54,0,0,0-.6.38.6.6,0,0,0,.63.78h6.67a.6.6,0,0,0,.62-.61A.59.59,0,0,0,10.7,13.6Z"/><path class="cls-1" d="M4,11.36H7.36a.56.56,0,0,0,.6-.58.58.58,0,0,0-.61-.58c-1.12,0-2.24,0-3.37,0a.55.55,0,0,0-.57.62A.53.53,0,0,0,4,11.36Z"/><path class="cls-1" d="M26.21,3A2.88,2.88,0,0,0,23.51,0H3.09A3,3,0,0,0,.68,1,2.82,2.82,0,0,0,0,2.82C0,3,0,3.26,0,3.49v11.9s0,.09,0,.16a2.81,2.81,0,0,0,2.84,2.6H23.41a2.71,2.71,0,0,0,2.37-1.34,3,3,0,0,0,.43-1.65C26.2,11.09,26.21,7,26.21,3ZM2.94,1.2H23.07a2,2,0,0,1,1.49.54A1.74,1.74,0,0,1,25,3.29s-.09.1-.14.1a3.05,3.05,0,0,1-.43,0h-23c-.21,0-.26-.08-.28-.26A1.72,1.72,0,0,1,2.94,1.2ZM24.26,16.72a2.89,2.89,0,0,1-.77.25,2.69,2.69,0,0,1-.57,0H3.09a2.29,2.29,0,0,1-.9-.17,1.65,1.65,0,0,1-1-1.61c0-1.14,0-2.28,0-3.41s0-2.36,0-3.53c0-.21,0-.29.27-.29H24.71C25,8,25,8,25,8.29c0,2.29,0,4.59,0,6.88A1.65,1.65,0,0,1,24.26,16.72Z"/></g></g></svg>